<mxfile host="app.diagrams.net" agent="Mozilla/5.0 (Macintosh; Intel Mac OS X 10_15_7) AppleWebKit/605.1.15 (KHTML, like Gecko) Version/17.5 Safari/605.1.15" version="26.0.4">
  <diagram id="C5RBs43oDa-KdzZeNtuy" name="Page-1">
    <mxGraphModel dx="1067" dy="802" grid="1" gridSize="10" guides="1" tooltips="1" connect="1" arrows="1" fold="1" page="1" pageScale="1" pageWidth="827" pageHeight="1169" math="0" shadow="0">
      <root>
        <mxCell id="WIyWlLk6GJQsqaUBKTNV-0" />
        <mxCell id="WIyWlLk6GJQsqaUBKTNV-1" parent="WIyWlLk6GJQsqaUBKTNV-0" />
        <mxCell id="ZRK5j3wljSKJTThkrk0z-1" style="edgeStyle=orthogonalEdgeStyle;rounded=0;orthogonalLoop=1;jettySize=auto;html=1;exitX=0.5;exitY=1;exitDx=0;exitDy=0;entryX=0.5;entryY=0;entryDx=0;entryDy=0;" edge="1" parent="WIyWlLk6GJQsqaUBKTNV-1" source="WIyWlLk6GJQsqaUBKTNV-3" target="ZRK5j3wljSKJTThkrk0z-0">
          <mxGeometry relative="1" as="geometry" />
        </mxCell>
        <mxCell id="WIyWlLk6GJQsqaUBKTNV-3" value="Trigger" style="rounded=1;whiteSpace=wrap;html=1;fontSize=12;glass=0;strokeWidth=1;shadow=0;" parent="WIyWlLk6GJQsqaUBKTNV-1" vertex="1">
          <mxGeometry x="160" y="80" width="120" height="40" as="geometry" />
        </mxCell>
        <mxCell id="ZRK5j3wljSKJTThkrk0z-2" style="edgeStyle=orthogonalEdgeStyle;rounded=0;orthogonalLoop=1;jettySize=auto;html=1;entryX=0.5;entryY=0;entryDx=0;entryDy=0;" edge="1" parent="WIyWlLk6GJQsqaUBKTNV-1" source="ZRK5j3wljSKJTThkrk0z-0" target="ZRK5j3wljSKJTThkrk0z-3">
          <mxGeometry relative="1" as="geometry">
            <mxPoint x="220" y="360" as="targetPoint" />
          </mxGeometry>
        </mxCell>
        <mxCell id="ZRK5j3wljSKJTThkrk0z-20" style="edgeStyle=orthogonalEdgeStyle;rounded=0;orthogonalLoop=1;jettySize=auto;html=1;entryX=0;entryY=0.5;entryDx=0;entryDy=0;entryPerimeter=0;" edge="1" parent="WIyWlLk6GJQsqaUBKTNV-1" source="ZRK5j3wljSKJTThkrk0z-0" target="ZRK5j3wljSKJTThkrk0z-21">
          <mxGeometry relative="1" as="geometry">
            <mxPoint x="530" y="230" as="targetPoint" />
          </mxGeometry>
        </mxCell>
        <mxCell id="ZRK5j3wljSKJTThkrk0z-0" value="backup from primary tables" style="shape=process;whiteSpace=wrap;html=1;backgroundOutline=1;" vertex="1" parent="WIyWlLk6GJQsqaUBKTNV-1">
          <mxGeometry x="160" y="200" width="120" height="60" as="geometry" />
        </mxCell>
        <mxCell id="ZRK5j3wljSKJTThkrk0z-4" style="edgeStyle=orthogonalEdgeStyle;rounded=0;orthogonalLoop=1;jettySize=auto;html=1;entryX=0;entryY=0.5;entryDx=0;entryDy=0;" edge="1" parent="WIyWlLk6GJQsqaUBKTNV-1" source="ZRK5j3wljSKJTThkrk0z-3" target="ZRK5j3wljSKJTThkrk0z-5">
          <mxGeometry relative="1" as="geometry">
            <mxPoint x="390" y="400" as="targetPoint" />
          </mxGeometry>
        </mxCell>
        <mxCell id="ZRK5j3wljSKJTThkrk0z-6" value="ERROR" style="edgeLabel;html=1;align=center;verticalAlign=middle;resizable=0;points=[];" vertex="1" connectable="0" parent="ZRK5j3wljSKJTThkrk0z-4">
          <mxGeometry x="-0.3385" y="2" relative="1" as="geometry">
            <mxPoint as="offset" />
          </mxGeometry>
        </mxCell>
        <mxCell id="ZRK5j3wljSKJTThkrk0z-8" style="edgeStyle=orthogonalEdgeStyle;rounded=0;orthogonalLoop=1;jettySize=auto;html=1;entryX=0.5;entryY=0;entryDx=0;entryDy=0;" edge="1" parent="WIyWlLk6GJQsqaUBKTNV-1" source="ZRK5j3wljSKJTThkrk0z-3" target="ZRK5j3wljSKJTThkrk0z-7">
          <mxGeometry relative="1" as="geometry" />
        </mxCell>
        <mxCell id="ZRK5j3wljSKJTThkrk0z-3" value="valid" style="rhombus;whiteSpace=wrap;html=1;" vertex="1" parent="WIyWlLk6GJQsqaUBKTNV-1">
          <mxGeometry x="180" y="320" width="80" height="80" as="geometry" />
        </mxCell>
        <mxCell id="ZRK5j3wljSKJTThkrk0z-5" value="stop" style="ellipse;whiteSpace=wrap;html=1;aspect=fixed;" vertex="1" parent="WIyWlLk6GJQsqaUBKTNV-1">
          <mxGeometry x="390" y="320" width="80" height="80" as="geometry" />
        </mxCell>
        <mxCell id="ZRK5j3wljSKJTThkrk0z-11" value="" style="edgeStyle=orthogonalEdgeStyle;rounded=0;orthogonalLoop=1;jettySize=auto;html=1;" edge="1" parent="WIyWlLk6GJQsqaUBKTNV-1" source="ZRK5j3wljSKJTThkrk0z-7" target="ZRK5j3wljSKJTThkrk0z-10">
          <mxGeometry relative="1" as="geometry" />
        </mxCell>
        <mxCell id="ZRK5j3wljSKJTThkrk0z-7" value="delete data from primary table" style="shape=process;whiteSpace=wrap;html=1;backgroundOutline=1;" vertex="1" parent="WIyWlLk6GJQsqaUBKTNV-1">
          <mxGeometry x="160" y="450" width="120" height="60" as="geometry" />
        </mxCell>
        <mxCell id="ZRK5j3wljSKJTThkrk0z-14" value="" style="edgeStyle=orthogonalEdgeStyle;rounded=0;orthogonalLoop=1;jettySize=auto;html=1;" edge="1" parent="WIyWlLk6GJQsqaUBKTNV-1" source="ZRK5j3wljSKJTThkrk0z-10" target="ZRK5j3wljSKJTThkrk0z-13">
          <mxGeometry relative="1" as="geometry" />
        </mxCell>
        <mxCell id="ZRK5j3wljSKJTThkrk0z-15" value="ERROR" style="edgeLabel;html=1;align=center;verticalAlign=middle;resizable=0;points=[];" vertex="1" connectable="0" parent="ZRK5j3wljSKJTThkrk0z-14">
          <mxGeometry x="-0.3571" y="1" relative="1" as="geometry">
            <mxPoint as="offset" />
          </mxGeometry>
        </mxCell>
        <mxCell id="ZRK5j3wljSKJTThkrk0z-16" style="edgeStyle=orthogonalEdgeStyle;rounded=0;orthogonalLoop=1;jettySize=auto;html=1;entryX=0.5;entryY=0;entryDx=0;entryDy=0;" edge="1" parent="WIyWlLk6GJQsqaUBKTNV-1" source="ZRK5j3wljSKJTThkrk0z-10" target="ZRK5j3wljSKJTThkrk0z-17">
          <mxGeometry relative="1" as="geometry">
            <mxPoint x="220" y="790" as="targetPoint" />
          </mxGeometry>
        </mxCell>
        <mxCell id="ZRK5j3wljSKJTThkrk0z-10" value="valid" style="rhombus;whiteSpace=wrap;html=1;" vertex="1" parent="WIyWlLk6GJQsqaUBKTNV-1">
          <mxGeometry x="180" y="580" width="80" height="80" as="geometry" />
        </mxCell>
        <mxCell id="ZRK5j3wljSKJTThkrk0z-13" value="stop" style="ellipse;whiteSpace=wrap;html=1;" vertex="1" parent="WIyWlLk6GJQsqaUBKTNV-1">
          <mxGeometry x="400" y="580" width="80" height="80" as="geometry" />
        </mxCell>
        <mxCell id="ZRK5j3wljSKJTThkrk0z-25" value="" style="edgeStyle=orthogonalEdgeStyle;rounded=0;orthogonalLoop=1;jettySize=auto;html=1;" edge="1" parent="WIyWlLk6GJQsqaUBKTNV-1" source="ZRK5j3wljSKJTThkrk0z-17" target="ZRK5j3wljSKJTThkrk0z-24">
          <mxGeometry relative="1" as="geometry" />
        </mxCell>
        <mxCell id="ZRK5j3wljSKJTThkrk0z-17" value="get data from&lt;div&gt;SNOWFLAKE&lt;/div&gt;" style="shape=process;whiteSpace=wrap;html=1;backgroundOutline=1;" vertex="1" parent="WIyWlLk6GJQsqaUBKTNV-1">
          <mxGeometry x="160" y="740" width="120" height="60" as="geometry" />
        </mxCell>
        <mxCell id="ZRK5j3wljSKJTThkrk0z-29" style="edgeStyle=orthogonalEdgeStyle;rounded=0;orthogonalLoop=1;jettySize=auto;html=1;entryX=0.5;entryY=0;entryDx=0;entryDy=0;endArrow=none;endFill=0;dashed=1;" edge="1" parent="WIyWlLk6GJQsqaUBKTNV-1" source="ZRK5j3wljSKJTThkrk0z-21" target="ZRK5j3wljSKJTThkrk0z-27">
          <mxGeometry relative="1" as="geometry" />
        </mxCell>
        <mxCell id="ZRK5j3wljSKJTThkrk0z-21" value="Backup DB" style="shape=cylinder3;whiteSpace=wrap;html=1;boundedLbl=1;backgroundOutline=1;size=15;" vertex="1" parent="WIyWlLk6GJQsqaUBKTNV-1">
          <mxGeometry x="525" y="185" width="130" height="90" as="geometry" />
        </mxCell>
        <mxCell id="ZRK5j3wljSKJTThkrk0z-26" value="ERROR" style="edgeStyle=orthogonalEdgeStyle;rounded=0;orthogonalLoop=1;jettySize=auto;html=1;entryX=0;entryY=0.5;entryDx=0;entryDy=0;" edge="1" parent="WIyWlLk6GJQsqaUBKTNV-1" source="ZRK5j3wljSKJTThkrk0z-24" target="ZRK5j3wljSKJTThkrk0z-27">
          <mxGeometry relative="1" as="geometry">
            <mxPoint x="400" y="910" as="targetPoint" />
          </mxGeometry>
        </mxCell>
        <mxCell id="ZRK5j3wljSKJTThkrk0z-36" style="edgeStyle=orthogonalEdgeStyle;rounded=0;orthogonalLoop=1;jettySize=auto;html=1;entryX=0.5;entryY=0;entryDx=0;entryDy=0;" edge="1" parent="WIyWlLk6GJQsqaUBKTNV-1" source="ZRK5j3wljSKJTThkrk0z-24" target="ZRK5j3wljSKJTThkrk0z-33">
          <mxGeometry relative="1" as="geometry" />
        </mxCell>
        <mxCell id="ZRK5j3wljSKJTThkrk0z-24" value="valid" style="rhombus;whiteSpace=wrap;html=1;" vertex="1" parent="WIyWlLk6GJQsqaUBKTNV-1">
          <mxGeometry x="180" y="850" width="80" height="80" as="geometry" />
        </mxCell>
        <mxCell id="ZRK5j3wljSKJTThkrk0z-27" value="restore&amp;nbsp;&lt;div&gt;backup&amp;nbsp;&lt;/div&gt;&lt;div&gt;data&lt;/div&gt;" style="shape=process;whiteSpace=wrap;html=1;backgroundOutline=1;" vertex="1" parent="WIyWlLk6GJQsqaUBKTNV-1">
          <mxGeometry x="530" y="860" width="120" height="60" as="geometry" />
        </mxCell>
        <mxCell id="ZRK5j3wljSKJTThkrk0z-28" style="edgeStyle=orthogonalEdgeStyle;rounded=0;orthogonalLoop=1;jettySize=auto;html=1;exitX=0.5;exitY=1;exitDx=0;exitDy=0;exitPerimeter=0;" edge="1" parent="WIyWlLk6GJQsqaUBKTNV-1" source="ZRK5j3wljSKJTThkrk0z-21" target="ZRK5j3wljSKJTThkrk0z-21">
          <mxGeometry relative="1" as="geometry" />
        </mxCell>
        <mxCell id="ZRK5j3wljSKJTThkrk0z-31" value="Log changes" style="shape=process;whiteSpace=wrap;html=1;backgroundOutline=1;" vertex="1" parent="WIyWlLk6GJQsqaUBKTNV-1">
          <mxGeometry x="170" y="1100" width="120" height="60" as="geometry" />
        </mxCell>
        <mxCell id="ZRK5j3wljSKJTThkrk0z-32" value="mark fo deletion" style="ellipse;shape=cloud;whiteSpace=wrap;html=1;" vertex="1" parent="WIyWlLk6GJQsqaUBKTNV-1">
          <mxGeometry x="294" y="430" width="146" height="100" as="geometry" />
        </mxCell>
        <mxCell id="ZRK5j3wljSKJTThkrk0z-34" style="edgeStyle=orthogonalEdgeStyle;rounded=0;orthogonalLoop=1;jettySize=auto;html=1;entryX=0.5;entryY=0;entryDx=0;entryDy=0;" edge="1" parent="WIyWlLk6GJQsqaUBKTNV-1" source="ZRK5j3wljSKJTThkrk0z-33" target="ZRK5j3wljSKJTThkrk0z-31">
          <mxGeometry relative="1" as="geometry" />
        </mxCell>
        <mxCell id="ZRK5j3wljSKJTThkrk0z-33" value="UPDATE VIEWS" style="shape=process;whiteSpace=wrap;html=1;backgroundOutline=1;" vertex="1" parent="WIyWlLk6GJQsqaUBKTNV-1">
          <mxGeometry x="170" y="990" width="120" height="60" as="geometry" />
        </mxCell>
      </root>
    </mxGraphModel>
  </diagram>
</mxfile>
